<?xml version="1.0" standalone="no"?>
<!DOCTYPE svg PUBLIC "-//W3C//DTD SVG 20010904//EN"
 "http://www.w3.org/TR/2001/REC-SVG-20010904/DTD/svg10.dtd">
<svg version="1.0" xmlns="http://www.w3.org/2000/svg"
 width="230.000000pt" height="230.000000pt" viewBox="0 0 230.000000 230.000000"
 preserveAspectRatio="xMidYMid meet">
<metadata>
Created by potrace 1.15, written by Peter Selinger 2001-2017
</metadata>
<g transform="translate(0.000000,230.000000) scale(0.100000,-0.100000)"
fill="#000000" stroke="none">
<path d="M1085 2254 c-411 -35 -753 -255 -932 -599 -74 -143 -106 -249 -122
-410 -41 -408 160 -811 520 -1037 208 -131 460 -191 709 -167 383 36 698 241
894 580 63 110 111 272 126 427 52 554 -337 1072 -890 1181 -98 20 -234 31
-305 25z m210 -25 c248 -30 476 -142 654 -320 368 -368 424 -932 135 -1365
-139 -210 -370 -378 -617 -448 -552 -159 -1136 124 -1346 649 -107 269 -105
553 7 815 196 461 665 730 1167 669z"/>
<path d="M1220 1777 c-91 -25 -176 -100 -219 -192 -12 -25 -28 -45 -36 -45
-15 0 -55 19 -65 31 -12 15 -51 19 -72 8 -37 -20 -47 -41 -48 -95 0 -44 -4
-54 -36 -85 -41 -38 -64 -84 -64 -126 0 -34 31 -88 60 -103 20 -11 21 -10 11
9 -15 28 -14 87 3 119 8 15 31 40 50 55 34 26 36 31 36 87 0 53 3 61 26 77 25
16 28 16 68 -5 72 -38 115 -24 132 43 11 46 110 138 168 158 88 30 184 17 240
-31 17 -15 17 -12 -3 15 -49 71 -159 106 -251 80z"/>
<path d="M1558 1733 c28 -41 62 -138 62 -179 0 -26 8 -44 31 -67 54 -55 84
-132 84 -212 -1 -83 -23 -132 -84 -188 -46 -42 -132 -71 -192 -65 -42 4 -51
-9 -22 -33 22 -19 148 -17 194 3 88 38 148 121 156 217 7 73 -7 120 -61 211
-25 41 -51 97 -57 125 -17 71 -36 113 -76 168 -36 49 -69 68 -35 20z"/>
<path d="M1298 1269 c3 -22 0 -29 -12 -29 -9 0 -16 -6 -16 -12 0 -7 16 -127
35 -266 19 -139 35 -262 35 -273 0 -18 -8 -19 -145 -19 -112 0 -145 -3 -145
-13 0 -32 24 -37 166 -37 116 0 145 3 158 16 21 20 21 11 -16 283 -25 191 -29
241 -21 274 13 46 4 81 -25 96 -16 9 -18 6 -14 -20z"/>
<path d="M708 1071 c54 -49 116 -71 204 -71 55 0 72 4 88 20 24 24 24 29 4 58
-19 27 -38 29 -29 3 5 -17 -1 -21 -40 -26 -77 -12 -158 -1 -217 28 l-53 27 43
-39z"/>
<path d="M1224 483 c-14 -10 -19 -30 -22 -83 -5 -81 -22 -95 -22 -17 0 39 -6
59 -23 80 l-22 28 3 -79 3 -79 -33 -2 c-18 -1 -43 -2 -55 -2 -31 -1 -29 -15 5
-26 34 -12 149 -8 166 6 16 14 50 127 42 146 -3 9 0 15 10 15 23 0 11 23 -13
25 -11 1 -29 -5 -39 -12z"/>
</g>
</svg>
